:SAMPLES-PER-SECOND 30
:FULLY-SPECIFIED
:DEGREES
512
root  -41.1602 37.1964 14.9697 -150.497 -34.6824 176.378
RightUpLeg  -68.4103 -23.0521 16.3616
RightLeg  30.6457 5.86678 3.53768
RightFoot  1.03008 -0.485711 4.64362
RightToes  0.00048216 0.542163 -0.142577
Spine  71.8218 -3.62771 5.80693
Spine1  7.22848 3.96503 -10.2474
HEad  -36.5095 -13.326 9.3852
LeftShoulder1  6.43911 -24.5383 -16.0735
LeftArm  -67.0612 -71.952 2.06308
LeftForeArm  5.27618 -24.1068 -4.92552
LeftHand  -0.25398 0.0180481 5.50724
RightShoulder  0.559144 9.34057 -4.64001
RightArm  -73.9884 77.9181 -3.76236
RightForeArm  -12.938 19.6356 4.62505
RightHand  -5.22479 14.6723 -30.0242
LeftUpLeg  -68.3154 25.7593 -31.4516
LeftLeg  32.5686 -0.444833 0.0539761
LeftFoot  1.06659 -1.60091 14.583
LeftToes  1.06245e-005 4.65856e-005 -8.18504e-006
513
root  -41.5257 37.53 15.6661 -153.035 -32.2073 177.64
RightUpLeg  -64.7023 -23.7466 14.5975
RightLeg  30.4171 6.31575 3.75692
RightFoot  -2.11237 -0.969879 11.6055
RightToes  0.00048216 0.542163 -0.142577
Spine  70.6239 -3.32289 5.35236
Spine1  7.49041 3.85625 -9.57125
HEad  -36.1242 -13.0847 9.52639
LeftShoulder1  7.03872 -24.2065 -18.7278
LeftArm  -49.91 -67.8779 -15.0297
LeftForeArm  8.33681 -29.9376 -6.06596
LeftHand  -0.25398 0.0180481 5.50724
RightShoulder  0.948482 11.6441 -2.37356
RightArm  -45.1716 73.6311 22.1416
RightForeArm  -13.9708 26.0557 6.31459
RightHand  -5.65064 15.3293 -31.3436
LeftUpLeg  -66.3433 28.0384 -31.8028
LeftLeg  30.1153 -0.282941 0.1775
LeftFoot  1.49728 -1.69424 14.8841
LeftToes  1.06245e-005 4.65856e-005 -8.18504e-006
514
root  -41.7577 37.879 16.3307 -155.851 -29.7152 178.544
RightUpLeg  -60.7362 -23.5512 11.397
RightLeg  34.0545 2.55167 1.55247
RightFoot  -4.46221 -0.670751 10.4909
RightToes  0.00048216 0.542163 -0.142577
Spine  69.6074 -3.73633 5.13587
Spine1  7.16574 3.25827 -10.5302
HEad  -35.5701 -12.3106 10.7228
LeftShoulder1  7.14646 -23.0769 -20.2865
LeftArm  -36.1199 -61.9002 -26.8891
LeftForeArm  11.037 -35.5821 -7.38269
LeftHand  -0.25398 0.0180481 5.50724
RightShoulder  2.11297 14.0116 3.80595
RightArm  -28.3604 67.4855 33.713
RightForeArm  -14.4181 32.1553 7.85042
RightHand  -6.08266 15.9457 -32.659
LeftUpLeg  -63.7454 30.8345 -32.2207
LeftLeg  26.9642 -0.309919 0.174109
LeftFoot  2.44524 -1.89416 15.4417
LeftToes  1.06245e-005 4.65856e-005 -8.18504e-006
515
root  -41.8842 38.216 16.9021 -158.68 -27.5127 179.085
RightUpLeg  -56.0719 -23.4048 7.86055
RightLeg  39.1876 -2.27014 -2.25583
RightFoot  -6.06942 -0.311937 5.90263
RightToes  0.00048216 0.542163 -0.142577
Spine  70.2658 -5.93921 5.3356
Spine1  3.20519 1.99832 -15.7384
HEad  -33.0507 -11.4613 14.4589
LeftShoulder1  6.28448 -21.592 -18.3973
LeftArm  -23.4002 -52.8209 -36.9776
LeftForeArm  13.7378 -41.376 -8.9688
LeftHand  -0.25398 0.0180481 5.50724
RightShoulder  4.5913 16.2328 16.7534
RightArm  -14.0849 60.1004 38.389
RightForeArm  -15.7019 38.0577 9.66255
RightHand  -6.75014 16.9934 -34.4114
LeftUpLeg  -60.8235 33.8692 -32.5223
LeftLeg  23.5087 -0.611075 0.0557815
LeftFoot  3.5852 -2.11776 15.891
LeftToes  1.06245e-005 4.65856e-005 -8.18504e-006
516
root  -41.9189 38.5009 17.3584 -161.429 -25.5963 179.518
RightUpLeg  -50.3427 -23.7058 4.46667
RightLeg  43.4366 -5.02638 -5.35228
RightFoot  -7.4197 -0.168083 3.51559
RightToes  0.00048216 0.542163 -0.142577
Spine  68.1504 -4.95155 4.78254
Spine1  4.68456 1.93041 -13.2868
HEad  -33.1741 -12.3382 15.4116
LeftShoulder1  6.79574 -20.8678 -21.4243
LeftArm  -16.4085 -46.6523 -40.3684
LeftForeArm  16.8242 -46.9244 -10.7825
LeftHand  -0.25398 0.0180481 5.50724
RightShoulder  5.11096 15.5117 20.4689
RightArm  -8.21818 53.1124 41.2271
RightForeArm  -15.0773 44.2531 11.8666
RightHand  -7.37356 17.9551 -35.919
LeftUpLeg  -58.4744 37.4151 -33.1139
LeftLeg  20.487 -1.69471 -0.332903
LeftFoot  4.58892 -2.31746 16.2442
LeftToes  1.06245e-005 4.65856e-005 -8.18504e-006
